# xmcd CD database file
#
# Track frame offsets:
#	150
#	17382
#	31511
#	49380
#	57416
#	66125
#	80163
#	90870
#	108905
#
# Disc length: 1690 seconds
#
# Revision: 0
# Processed by: cddbd v1.5.2PL0 Copyright (c) Steve Scherf et al.
# Submitted via: CDex 1.51
#
DISCID=64069809
DTITLE=Rudi Mahall - Günter Adler - Auf der Schönhauser Allee
DYEAR=2009
DGENRE=Jazz
TTITLE0=La mer de Riz
TTITLE1=Schwester Ingrid diagnostiziert am Tage
TTITLE2=Mit ohne ohne mit
TTITLE3=7QM dunkelblau
TTITLE4=Wasser, Wasser
TTITLE5=Na also
TTITLE6=Meiner ist kleiner
TTITLE7=Okyaku
TTITLE8=What Do You Fink
EXTD=YEAR: 2009
EXTT0=
EXTT1=
EXTT2=
EXTT3=
EXTT4=
EXTT5=
EXTT6=
EXTT7=
EXTT8=
PLAYORDER=
